<svg width="26" height="23" viewBox="0 0 26 23" fill="none" xmlns="http://www.w3.org/2000/svg">
<path fill-rule="evenodd" clip-rule="evenodd" d="M3.80856 0.583676C3.28846 0.904554 2.57294 1.46063 2.21873 1.81917C1.86423 2.178 1.34498 2.8258 1.06462 3.2591C0.783982 3.6924 0.42977 4.59149 0.277234 5.25711C0.124698 5.92273 0 6.92016 0 7.47364C0 8.02713 0.122142 8.99753 0.271553 9.63008C0.42068 10.2626 0.945891 11.5824 1.43815 12.5631C2.02614 13.7336 3.18791 15.2164 4.82177 16.8812C6.19061 18.2754 7.75773 19.7331 8.30453 20.1204C8.85132 20.5077 9.47254 20.9957 9.6853 21.2047C9.89777 21.4137 10.6925 21.9034 11.451 22.2924C12.2097 22.6817 13.0067 23 13.222 23C13.4373 23 14.4321 22.4661 15.4328 21.8134C16.4335 21.1607 17.3161 20.5396 17.3942 20.4338C17.4723 20.3277 17.9836 19.9252 18.5304 19.5391C19.0772 19.1532 20.1779 18.1776 20.9763 17.3708C21.7748 16.5643 23.0564 14.9453 23.8242 13.7736C24.592 12.6017 25.3985 11.1252 25.6163 10.4927C25.8342 9.8601 26.0069 8.54065 25.9998 7.56047C25.993 6.58059 25.8129 5.18149 25.6001 4.45146C25.3871 3.72144 24.8252 2.69584 24.3512 2.17225C23.8774 1.64838 23.0448 0.945383 22.5014 0.610128C21.726 0.131686 21.0536 0 19.3825 0C17.718 0 17.038 0.132261 16.273 0.604378C15.7345 0.936757 14.9326 1.60008 14.4909 2.07852C14.0495 2.55696 13.5632 3.15818 13.4106 3.41407C13.1627 3.8307 13.0811 3.81575 12.6363 3.27261C12.3631 2.93879 11.8836 2.33988 11.5711 1.94195C11.2587 1.54401 10.5556 0.944233 10.0088 0.609266C9.23053 0.132261 8.55193 0 6.88427 0C5.24359 0 4.53658 0.134274 3.80856 0.583676Z" fill="#B3B3B3"/>
</svg>
