<svg width="16" height="16" viewBox="0 0 16 16" fill="none" xmlns="http://www.w3.org/2000/svg">
<circle cx="8" cy="8" r="8" fill="#D7570E"/>
<path d="M12.5451 12.16H10.6641L9.98005 9.28H9.92605L9.24205 12.16H7.36105L7.1592 6.58H8.50405L8.60305 9.28L8.56705 10.783L8.64805 10.801L9.44905 7.921H10.4571L11.2581 10.801L11.3391 10.783L11.3031 9.28L11.4021 6.58H12.7611L12.5451 12.16Z" fill="white"/>
<path d="M3.216 3.75H5.097L5.781 6.63H5.835L6.519 3.75H8.4L8.60303 9.32996L7.257 9.33L7.158 6.63L7.194 5.127L7.113 5.109L6.312 7.989H5.304L4.503 5.109L4.422 5.127L4.458 6.63L4.359 9.33H3L3.216 3.75Z" fill="white"/>
</svg>
