<svg width="17" height="30" viewBox="0 0 17 30" fill="none" xmlns="http://www.w3.org/2000/svg">
<path fill-rule="evenodd" clip-rule="evenodd" d="M4.16466 0.841357C3.29681 1.30134 2.32293 1.96766 2.00046 2.32234C1.678 2.67702 1.09579 3.56815 0.707069 4.30242C0.17905 5.29938 0 6.09622 0 7.44815C0 9.02737 0.0992433 9.35458 0.776274 10.0053C1.31195 10.52 1.86441 10.7515 2.55793 10.7515C3.11069 10.7515 3.92819 10.57 4.37464 10.3481C4.82108 10.1262 5.34439 9.61077 5.53787 9.20259C5.73135 8.79441 5.88978 8.15717 5.88978 7.78664C5.88978 7.39402 6.21696 6.8653 6.67371 6.51996C7.10514 6.19386 7.75331 5.85587 8.11465 5.76868C8.47569 5.6815 9.18305 5.81486 9.68634 6.06509C10.4738 6.45657 10.6016 6.67482 10.6016 7.62762C10.6016 8.64383 10.3819 8.94783 7.93678 11.3165C6.47081 12.7361 5.01368 14.3042 4.69828 14.8013C4.38318 15.2984 4.12461 16.1337 4.12402 16.6574C4.12344 17.1811 4.40467 18.0917 4.74952 18.681C5.09407 19.2704 5.66509 19.9014 6.01847 20.0831C6.37186 20.2648 7.24502 20.3732 7.95886 20.3239C9.05819 20.2481 9.36034 20.0868 9.92929 19.2724C10.2992 18.7433 10.6016 17.9539 10.6016 17.5177C10.6016 16.932 10.8893 16.5173 11.7018 15.9319C12.307 15.4957 13.2058 14.7569 13.699 14.2898C14.192 13.8228 15.0036 12.8674 15.5025 12.1668C16.0011 11.4662 16.5002 10.4472 16.6115 9.90231C16.7229 9.3574 16.886 8.517 16.9741 8.03494C17.0627 7.54948 16.9169 6.53894 16.6472 5.77041C16.3792 5.00698 15.9463 4.06407 15.6848 3.67485C15.4233 3.28564 14.8099 2.60654 14.3213 2.16609C13.833 1.72535 12.8009 1.05675 12.0275 0.67999C10.8725 0.117255 10.1852 -0.00413985 8.18179 0.000106143C6.0382 0.0046352 5.55141 0.106517 4.16466 0.841357ZM5.56202 23.2775C5.13854 23.6276 4.50951 24.3599 4.16408 24.9048C3.81864 25.4497 3.53593 26.214 3.53593 26.6032C3.53593 26.9924 3.79479 27.7188 4.11107 28.2169C4.42705 28.7154 5.08259 29.3206 5.56761 29.5615C6.05263 29.8027 6.90665 30 7.4653 30C8.23185 30 8.7319 29.7591 9.5014 29.0194C10.0624 28.4802 10.6953 27.6353 10.9082 27.1416C11.2542 26.3386 11.2253 26.1183 10.6364 25.0512C10.2403 24.3336 9.52878 23.6154 8.85087 23.2491C8.23097 22.9143 7.41052 22.6406 7.02769 22.6406C6.64485 22.6408 5.9852 22.9273 5.56202 23.2775Z" fill="#B3B3B3"/>
</svg>
