<svg width="14" height="14" viewBox="0 0 14 14" fill="none" xmlns="http://www.w3.org/2000/svg">
<path d="M6.60598 12.2701C6.40157 12.6737 6.13514 13.1155 6.01367 13.252C5.8922 13.3885 5.70298 13.5 5.59311 13.5C5.48324 13.5 5.21223 13.4073 4.99092 13.2941C4.76961 13.1808 4.51006 12.9008 4.41409 12.6716C4.30365 12.4079 4.26325 11.8207 4.30393 11.0706C4.33917 10.4191 4.43787 9.63092 4.52324 9.31913C4.60875 9.00734 4.71819 8.59279 4.7666 8.39792L4.85456 8.04361L2.68616 8.09222C0.747234 8.13573 0.487249 8.11348 0.22927 7.88247C0.000799179 7.67796 -0.0400238 7.52036 0.0330296 7.12524C0.0837374 6.85086 0.176987 6.08427 0.240013 5.42171C0.303183 4.75915 0.405602 4.06541 0.467626 3.88003C0.52965 3.69466 0.800089 3.18445 1.06852 2.74624C1.33696 2.30802 1.59007 1.79002 1.63104 1.59515C1.672 1.40028 1.78101 1.14036 1.8734 1.01762C1.96579 0.894892 2.22649 0.675076 2.45282 0.529383C2.67914 0.38369 3.19481 0.204126 3.59875 0.130571C4.00269 0.0570164 5.01012 -0.00180054 5.83734 4.19617e-05C6.66456 0.00174236 7.72814 0.0601349 8.20083 0.129722C8.67353 0.19945 9.26111 0.374903 9.50634 0.519887C9.75171 0.664729 10.074 0.98191 10.2226 1.22468C10.401 1.51607 10.5295 2.09927 10.6009 2.94153C10.6604 3.64307 10.7142 4.37649 10.7202 4.57136C10.7263 4.76623 10.6776 5.15102 10.612 5.42639C10.5464 5.70176 10.3081 6.21196 10.0825 6.56018C9.85685 6.9084 9.43787 7.35894 9.15139 7.56146C8.8649 7.76399 8.41083 8.29404 8.14239 8.73919C7.87381 9.18449 7.50196 9.99601 7.31588 10.5425C7.12981 11.0891 6.81038 11.8666 6.60598 12.2701Z" fill="#B3B3B3"/>
<path d="M13.7999 4.92567C13.691 5.23747 13.3965 5.69991 13.1454 5.95318C12.7906 6.31103 12.5686 6.41378 12.15 6.41378C11.7979 6.41378 11.5239 6.31812 11.3586 6.13742C11.1588 5.91902 11.1271 5.73322 11.2073 5.25164C11.2632 4.91646 11.3126 4.16391 11.3172 3.57929C11.3218 2.99468 11.2539 2.26126 11.1662 1.94946C11.0786 1.63767 10.9653 1.21221 10.9143 1.00388C10.8356 0.682163 10.8873 0.5916 11.2589 0.401548C11.4993 0.278532 11.8554 0.177907 12.0499 0.177907C12.2771 0.177907 12.6259 0.398714 13.0239 0.794692C13.3838 1.15255 13.7192 1.65723 13.8231 1.99708C13.9215 2.31922 14.0011 2.98235 14 3.47073C13.9988 3.95911 13.9087 4.61388 13.7999 4.92567Z" fill="#B3B3B3"/>
</svg>
