<svg width="21" height="30" viewBox="0 0 21 30" fill="none" xmlns="http://www.w3.org/2000/svg">
<path d="M11.9892 3.16085C12.1987 2.46777 12.811 1.47288 13.3501 0.949802C14.2661 0.0609159 14.4571 -0.00111868 16.2755 1.47418e-05C17.6888 0.000581453 18.4772 0.152441 19.1573 0.554239C19.6725 0.858279 20.2979 1.48904 20.5469 1.95573C20.8414 2.50714 21 3.57143 21 4.99415C21 6.1987 20.878 7.57579 20.7288 8.05437C20.5796 8.53296 20.0285 10.2634 19.5043 11.8998C18.98 13.5362 18.2469 15.4752 17.8754 16.2085C17.5042 16.9418 16.9115 17.8027 16.5584 18.1212C16.2053 18.4397 15.5793 18.6964 15.1671 18.6913C14.7552 18.6865 14.2105 18.5269 13.9572 18.3371C13.7038 18.1472 13.2457 17.619 12.9391 17.1631C12.6325 16.7072 12.2669 15.5596 12.1262 14.6129C11.9854 13.6662 11.8114 10.9857 11.7394 8.65623C11.647 5.67363 11.721 4.04832 11.9892 3.16085Z" fill="#B3B3B3"/>
<path d="M0.947988 6.72289C1.12176 6.49281 1.72233 6.03378 2.28284 5.70282C2.84305 5.37214 3.7622 5.10124 4.32534 5.10124C4.88847 5.10124 5.76872 5.34918 6.28125 5.6518C6.79406 5.95471 7.37651 6.49623 7.57573 6.85495C7.77524 7.21397 8.06573 8.01783 8.22136 8.64121C8.37699 9.2646 8.48991 10.4759 8.47236 11.3331C8.4548 12.1902 8.33633 14.2942 8.20907 16.0085C8.0356 18.3461 7.8197 19.4124 7.34521 20.2738C6.99709 20.9054 6.3693 21.5738 5.9498 21.7589C5.35858 22.0198 5.05961 22.0187 4.62226 21.754C4.31159 21.5662 3.73295 20.8343 3.33627 20.1273C2.93929 19.4203 2.14388 17.4782 1.56846 15.8112C0.993037 14.1442 0.522345 12.4957 0.522345 12.1477C0.522345 11.7998 0.37081 11.1092 0.185633 10.6131C-0.0761881 9.91178 -0.0639005 9.42525 0.240632 8.42614C0.455939 7.71945 0.774513 6.95298 0.947988 6.72289Z" fill="#B3B3B3"/>
<path d="M11.0868 23.1655C11.4568 22.4001 12.0946 21.5976 12.5038 21.382C12.9131 21.1664 13.6822 20.9848 14.2131 20.9785C14.7438 20.9723 15.5725 21.1647 16.0544 21.4061C16.5362 21.6472 17.1874 22.253 17.5012 22.752C17.8154 23.2507 18.0726 24.1053 18.0726 24.6508C18.0726 25.1963 17.8154 26.0509 17.5012 26.5496C17.1874 27.0486 16.5362 27.6544 16.0544 27.8955C15.5725 28.1369 14.7306 28.3344 14.1833 28.3344C13.6298 28.3344 12.763 28.0513 12.2309 27.6969C11.6078 27.282 11.1236 26.6224 10.8437 25.8083C10.4382 24.6278 10.452 24.4785 11.0868 23.1655Z" fill="#B3B3B3"/>
<path d="M2.86265 26.9176C2.86265 26.0591 3.0762 25.634 3.91578 24.8208C4.71792 24.0438 5.20939 23.8007 5.97818 23.8007C6.53312 23.8007 7.34989 23.9824 7.79338 24.2045C8.23686 24.4267 8.7567 24.9427 8.9489 25.3513C9.1411 25.7599 9.29848 26.5156 9.29848 27.0307C9.29848 27.5459 8.99776 28.4005 8.63033 28.93C8.03706 29.7852 7.79659 29.9022 6.47929 29.977C5.11168 30.0547 4.91363 29.981 3.92953 29.0278C3.07649 28.2015 2.86265 27.7788 2.86265 26.9176Z" fill="#B3B3B3"/>
</svg>
