<svg width="282" height="105" viewBox="0 0 282 105" fill="none" xmlns="http://www.w3.org/2000/svg">
<path d="M3.28 21.2H11.64L14.68 34H14.92L17.96 21.2H26.32L27.28 46H21.24L20.8 34L20.96 27.32L20.6 27.24L17.04 40.04H12.56L9 27.24L8.64 27.32L8.8 34L8.36 46H2.32L3.28 21.2ZM40.0894 46.36C36.996 46.36 34.7427 45.5467 33.3294 43.92C31.916 42.2933 31.2094 39.9733 31.2094 36.96C31.2094 34.9867 31.6094 33.2267 32.4094 31.68C33.236 30.1333 34.4094 28.92 35.9294 28.04C37.476 27.16 39.3027 26.72 41.4094 26.72C47.3294 26.72 50.2894 29.8933 50.2894 36.24C50.2894 39.3067 49.4494 41.76 47.7694 43.6C46.0894 45.44 43.5294 46.36 40.0894 46.36ZM40.8094 41.36C41.876 41.36 42.8627 41.2267 43.7694 40.96C44.2227 39.8133 44.4494 38.3333 44.4494 36.52C44.4494 34.76 44.1694 33.5467 43.6094 32.88C43.076 32.1867 42.1027 31.84 40.6894 31.84C39.676 31.84 38.6894 31.96 37.7294 32.2C37.276 33.32 37.0494 34.8133 37.0494 36.68C37.0494 38.44 37.316 39.6667 37.8494 40.36C38.4094 41.0267 39.396 41.36 40.8094 41.36ZM60.835 46.32C58.3817 46.32 56.5417 45.4933 55.315 43.84C54.0883 42.16 53.475 39.7467 53.475 36.6C53.475 34.8933 53.7417 33.3067 54.275 31.84C54.8083 30.3733 55.635 29.1867 56.755 28.28C57.875 27.3467 59.275 26.88 60.955 26.88C62.3417 26.88 63.4083 27.08 64.155 27.48C64.9283 27.88 65.715 28.5467 66.515 29.48H66.755L66.435 25.72V19.16H72.435V46H66.795L66.635 43.44H66.315C65.6217 44.4 64.875 45.12 64.075 45.6C63.3017 46.08 62.2217 46.32 60.835 46.32ZM62.475 40.8C63.4083 40.8 64.1817 40.6533 64.795 40.36C65.435 40.0667 65.9817 39.6 66.435 38.96V33.8C65.875 33.2933 65.315 32.9333 64.755 32.72C64.2217 32.5067 63.515 32.4 62.635 32.4C61.675 32.4 60.9283 32.72 60.395 33.36C59.8883 34 59.635 35.12 59.635 36.72C59.635 38.1867 59.835 39.24 60.235 39.88C60.6617 40.4933 61.4083 40.8 62.475 40.8ZM84.24 46C82.7467 42.6667 81.24 38.72 79.72 34.16C78.2267 29.6 76.9733 25.2667 75.96 21.16L81.96 20.88C82.68 24 83.56 27.3467 84.6 30.92C85.6667 34.4667 86.68 37.5733 87.64 40.24H88.04C89 37.6267 90.0133 34.5333 91.08 30.96C92.1467 27.3867 93.04 24.0267 93.76 20.88L99.8 21.16C98.7867 25.2667 97.52 29.6 96 34.16C94.5067 38.72 93.0133 42.6667 91.52 46H84.24ZM110.385 46.24C107.212 46.24 104.772 45.44 103.065 43.84C101.385 42.24 100.545 39.88 100.545 36.76C100.545 33.48 101.359 30.9867 102.985 29.28C104.612 27.5733 106.959 26.72 110.025 26.72C112.745 26.72 114.839 27.44 116.305 28.88C117.799 30.2933 118.545 32.24 118.545 34.72C118.545 35.12 118.532 35.4267 118.505 35.64L115.585 38.52L106.305 38.44C106.305 39.3733 106.625 40.08 107.265 40.56C107.932 41.0133 109.039 41.24 110.585 41.24C111.972 41.24 113.172 41.1067 114.185 40.84C115.199 40.5467 116.172 40.1333 117.105 39.6L118.545 44.16C117.532 44.8267 116.372 45.3467 115.065 45.72C113.785 46.0667 112.225 46.24 110.385 46.24ZM112.905 34.56C112.985 34.2667 113.025 34.0267 113.025 33.84C113.025 33.1733 112.732 32.6533 112.145 32.28C111.559 31.88 110.812 31.68 109.905 31.68C108.652 31.68 107.745 31.9467 107.185 32.48C106.625 32.9867 106.319 33.7333 106.265 34.72L112.905 34.56ZM122.638 27.12H128.038L128.278 30.96H128.678C129.398 29.6533 130.211 28.6667 131.118 28C132.051 27.3067 133.198 26.96 134.558 26.96C134.771 26.96 135.051 27.0667 135.398 27.28C135.771 27.4933 136.051 27.7067 136.238 27.92L135.638 33.08H133.958C131.665 33.08 129.865 33.68 128.558 34.88V46H122.638V27.12ZM146.071 46.32C143.058 46.32 140.498 45.8 138.391 44.76L140.071 40.16C141.031 40.56 142.018 40.8667 143.031 41.08C144.045 41.2933 144.991 41.4 145.871 41.4C146.991 41.4 147.951 41.3333 148.751 41.2C148.885 41.04 148.951 40.8 148.951 40.48C148.951 40.16 148.765 39.92 148.391 39.76C148.045 39.6 147.258 39.3733 146.031 39.08C144.191 38.6533 142.765 38.2267 141.751 37.8C140.738 37.3467 139.951 36.72 139.391 35.92C138.831 35.12 138.551 34.0133 138.551 32.6C138.551 28.68 141.351 26.72 146.951 26.72C148.231 26.72 149.498 26.8533 150.751 27.12C152.031 27.36 153.111 27.68 153.991 28.08V29.4C153.991 29.9333 153.938 30.64 153.831 31.52C153.725 32.3733 153.605 32.9867 153.471 33.36H148.671L148.351 31.56C147.818 31.4533 147.218 31.4 146.551 31.4C145.165 31.4 144.471 31.84 144.471 32.72C144.471 33.2267 144.725 33.5867 145.231 33.8C145.738 34.0133 146.698 34.2667 148.111 34.56C149.685 34.88 150.938 35.24 151.871 35.64C152.805 36.0133 153.525 36.6 154.031 37.4C154.565 38.1733 154.831 39.2533 154.831 40.64C154.831 42.5333 154.138 43.96 152.751 44.92C151.391 45.8533 149.165 46.32 146.071 46.32ZM167.729 46.24C164.556 46.24 162.116 45.44 160.409 43.84C158.729 42.24 157.889 39.88 157.889 36.76C157.889 33.48 158.702 30.9867 160.329 29.28C161.956 27.5733 164.302 26.72 167.369 26.72C170.089 26.72 172.182 27.44 173.649 28.88C175.142 30.2933 175.889 32.24 175.889 34.72C175.889 35.12 175.876 35.4267 175.849 35.64L172.929 38.52L163.649 38.44C163.649 39.3733 163.969 40.08 164.609 40.56C165.276 41.0133 166.382 41.24 167.929 41.24C169.316 41.24 170.516 41.1067 171.529 40.84C172.542 40.5467 173.516 40.1333 174.449 39.6L175.889 44.16C174.876 44.8267 173.716 45.3467 172.409 45.72C171.129 46.0667 169.569 46.24 167.729 46.24ZM170.249 34.56C170.329 34.2667 170.369 34.0267 170.369 33.84C170.369 33.1733 170.076 32.6533 169.489 32.28C168.902 31.88 168.156 31.68 167.249 31.68C165.996 31.68 165.089 31.9467 164.529 32.48C163.969 32.9867 163.662 33.7333 163.609 34.72L170.249 34.56Z" fill="black"/>
<path d="M77.28 62.2H85.64L88.68 75H88.92L91.96 62.2H100.32L101.28 87H95.24L94.8 75L94.96 68.32L94.6 68.24L91.04 81.04H86.56L83 68.24L82.64 68.32L82.8 75L82.36 87H76.32L77.28 62.2ZM114.089 87.36C110.996 87.36 108.743 86.5467 107.329 84.92C105.916 83.2933 105.209 80.9733 105.209 77.96C105.209 75.9867 105.609 74.2267 106.409 72.68C107.236 71.1333 108.409 69.92 109.929 69.04C111.476 68.16 113.303 67.72 115.409 67.72C121.329 67.72 124.289 70.8933 124.289 77.24C124.289 80.3067 123.449 82.76 121.769 84.6C120.089 86.44 117.529 87.36 114.089 87.36ZM114.809 82.36C115.876 82.36 116.863 82.2267 117.769 81.96C118.223 80.8133 118.449 79.3333 118.449 77.52C118.449 75.76 118.169 74.5467 117.609 73.88C117.076 73.1867 116.103 72.84 114.689 72.84C113.676 72.84 112.689 72.96 111.729 73.2C111.276 74.32 111.049 75.8133 111.049 77.68C111.049 79.44 111.316 80.6667 111.849 81.36C112.409 82.0267 113.396 82.36 114.809 82.36ZM134.835 87.32C132.382 87.32 130.542 86.4933 129.315 84.84C128.088 83.16 127.475 80.7467 127.475 77.6C127.475 75.8933 127.742 74.3067 128.275 72.84C128.808 71.3733 129.635 70.1867 130.755 69.28C131.875 68.3467 133.275 67.88 134.955 67.88C136.342 67.88 137.408 68.08 138.155 68.48C138.928 68.88 139.715 69.5467 140.515 70.48H140.755L140.435 66.72V60.16H146.435V87H140.795L140.635 84.44H140.315C139.622 85.4 138.875 86.12 138.075 86.6C137.302 87.08 136.222 87.32 134.835 87.32ZM136.475 81.8C137.408 81.8 138.182 81.6533 138.795 81.36C139.435 81.0667 139.982 80.6 140.435 79.96V74.8C139.875 74.2933 139.315 73.9333 138.755 73.72C138.222 73.5067 137.515 73.4 136.635 73.4C135.675 73.4 134.928 73.72 134.395 74.36C133.888 75 133.635 76.12 133.635 77.72C133.635 79.1867 133.835 80.24 134.235 80.88C134.662 81.4933 135.408 81.8 136.475 81.8ZM156.28 87C154.067 80.0933 151.987 71.9867 150.04 62.68L156.2 62.12C156.84 66.1733 157.4 69.5467 157.88 72.24C158.387 74.9333 158.973 77.7733 159.64 80.76H159.96C161.107 77.7733 162.587 73.4267 164.4 67.72C163.84 65.3467 163.467 63.6933 163.28 62.76L169.32 62.2C170.067 66.0933 170.76 69.4 171.4 72.12C172.04 74.8133 172.787 77.6933 173.64 80.76H174.08C174.667 77.96 175.187 75.2133 175.64 72.52C176.093 69.8267 176.613 66.36 177.2 62.12L183 62.72C181.32 71.2 179.24 79.2933 176.76 87H170.4C169.013 83.16 167.76 79.3733 166.64 75.64H166.24C164.907 79.8533 163.613 83.64 162.36 87H156.28ZM192.332 87.36C189.238 87.36 186.985 86.5467 185.572 84.92C184.158 83.2933 183.452 80.9733 183.452 77.96C183.452 75.9867 183.852 74.2267 184.652 72.68C185.478 71.1333 186.652 69.92 188.172 69.04C189.718 68.16 191.545 67.72 193.652 67.72C199.572 67.72 202.532 70.8933 202.532 77.24C202.532 80.3067 201.692 82.76 200.012 84.6C198.332 86.44 195.772 87.36 192.332 87.36ZM193.052 82.36C194.118 82.36 195.105 82.2267 196.012 81.96C196.465 80.8133 196.692 79.3333 196.692 77.52C196.692 75.76 196.412 74.5467 195.852 73.88C195.318 73.1867 194.345 72.84 192.932 72.84C191.918 72.84 190.932 72.96 189.972 73.2C189.518 74.32 189.292 75.8133 189.292 77.68C189.292 79.44 189.558 80.6667 190.092 81.36C190.652 82.0267 191.638 82.36 193.052 82.36ZM206.677 68.12H212.077L212.317 71.96H212.717C213.437 70.6533 214.251 69.6667 215.157 69C216.091 68.3067 217.237 67.96 218.597 67.96C218.811 67.96 219.091 68.0667 219.437 68.28C219.811 68.4933 220.091 68.7067 220.277 68.92L219.677 74.08H217.997C215.704 74.08 213.904 74.68 212.597 75.88V87H206.677V68.12ZM238.87 87.2C237.75 87.2 236.897 87.0133 236.31 86.64C235.724 86.24 235.23 85.6 234.83 84.72L233.55 81.84C233.15 80.96 232.737 80.3733 232.31 80.08C231.884 79.7867 231.257 79.64 230.43 79.64H229.39V87H223.47V60.16H229.39V74.72H230.23C231.057 74.72 231.657 74.6 232.03 74.36C232.404 74.12 232.75 73.6267 233.07 72.88L235.19 67.72L240.75 69.64L238.95 73.8C238.55 74.7067 238.004 75.4 237.31 75.88C236.644 76.36 235.644 76.76 234.31 77.08V77.32C235.51 77.5867 236.39 77.9467 236.95 78.4C237.537 78.8267 238.15 79.5867 238.79 80.68L240.35 83.72L242.03 84.16V86.8C241.23 87.0667 240.177 87.2 238.87 87.2ZM252.063 87.32C249.05 87.32 246.49 86.8 244.383 85.76L246.063 81.16C247.023 81.56 248.01 81.8667 249.023 82.08C250.037 82.2933 250.983 82.4 251.863 82.4C252.983 82.4 253.943 82.3333 254.743 82.2C254.877 82.04 254.943 81.8 254.943 81.48C254.943 81.16 254.757 80.92 254.383 80.76C254.037 80.6 253.25 80.3733 252.023 80.08C250.183 79.6533 248.757 79.2267 247.743 78.8C246.73 78.3467 245.943 77.72 245.383 76.92C244.823 76.12 244.543 75.0133 244.543 73.6C244.543 69.68 247.343 67.72 252.943 67.72C254.223 67.72 255.49 67.8533 256.743 68.12C258.023 68.36 259.103 68.68 259.983 69.08V70.4C259.983 70.9333 259.93 71.64 259.823 72.52C259.717 73.3733 259.597 73.9867 259.463 74.36H254.663L254.343 72.56C253.81 72.4533 253.21 72.4 252.543 72.4C251.157 72.4 250.463 72.84 250.463 73.72C250.463 74.2267 250.717 74.5867 251.223 74.8C251.73 75.0133 252.69 75.2667 254.103 75.56C255.677 75.88 256.93 76.24 257.863 76.64C258.797 77.0133 259.517 77.6 260.023 78.4C260.557 79.1733 260.823 80.2533 260.823 81.64C260.823 83.5333 260.13 84.96 258.743 85.92C257.383 86.8533 255.157 87.32 252.063 87.32Z" fill="black"/>
<line x1="2" y1="52" x2="192" y2="52" stroke="black" stroke-width="4"/>
<line x1="76" y1="93" x2="276" y2="93" stroke="black" stroke-width="4"/>
<line x1="278" y1="93" x2="282" y2="93" stroke="black" stroke-width="4"/>
</svg>
