<svg width="17" height="23" viewBox="0 0 17 23" fill="none" xmlns="http://www.w3.org/2000/svg">
<path d="M0 4.5259V17.9404C0 19.8653 0 20.8275 0.289168 21.4165C0.825131 22.5081 1.99973 23.1355 3.20687 22.9752C3.85816 22.8887 4.66032 22.3548 6.26464 21.2871L6.26849 21.2845C6.90439 20.8613 7.22238 20.6497 7.55502 20.5323C8.16596 20.3167 8.83258 20.3167 9.44352 20.5323C9.77683 20.6499 10.0961 20.8624 10.7345 21.2873C12.3389 22.355 13.1419 22.8884 13.7932 22.975C15.0003 23.1353 16.1749 22.5081 16.7109 21.4165C17 20.8276 17 19.8649 17 17.9404V4.52126C17 2.94023 17 2.14854 16.6915 1.54408C16.4198 1.01186 15.9853 0.579469 15.4521 0.30829C14.8461 0 14.0538 0 12.4669 0H4.53361C2.94679 0 2.1528 0 1.54671 0.30829C1.01359 0.579469 0.580456 1.01186 0.308815 1.54408C0 2.14914 0 2.94178 0 4.5259Z" fill="#B3B3B3"/>
</svg>
