<svg width="28" height="27" viewBox="0 0 28 27" fill="none" xmlns="http://www.w3.org/2000/svg">
<path d="M14.788 2.45977C15.1969 1.65251 15.7297 0.768997 15.9727 0.496035C16.2156 0.223074 16.594 0 16.8138 0C17.0335 0 17.5755 0.185376 18.0182 0.411852C18.4608 0.638327 18.9799 1.19842 19.1718 1.65676C19.3927 2.18426 19.4735 3.35858 19.3921 4.85888C19.3217 6.16189 19.1243 7.73815 18.9535 8.36174C18.7825 8.98533 18.5636 9.81441 18.4668 10.2042L18.2909 10.9128L22.6277 10.8156C26.5055 10.7285 27.0255 10.773 27.5415 11.2351C27.9984 11.6441 28.08 11.9593 27.9339 12.7495C27.8325 13.2983 27.646 14.8315 27.52 16.1566C27.3936 17.4817 27.1888 18.8692 27.0647 19.2399C26.9407 19.6107 26.3998 20.6311 25.863 21.5075C25.3261 22.384 24.8199 23.42 24.7379 23.8097C24.656 24.1994 24.438 24.7193 24.2532 24.9648C24.0684 25.2102 23.547 25.6498 23.0944 25.9412C22.6417 26.2326 21.6104 26.5917 20.8025 26.7389C19.9946 26.886 17.9798 27.0036 16.3253 26.9999C14.6709 26.9965 12.5437 26.8797 11.5983 26.7406C10.6529 26.6011 9.47778 26.2502 8.98732 25.9602C8.49657 25.6705 7.85198 25.0362 7.5549 24.5506C7.19794 23.9679 6.94096 22.8015 6.79829 21.1169C6.67912 19.7139 6.57168 18.247 6.55965 17.8573C6.54733 17.4675 6.64474 16.698 6.77595 16.1472C6.90716 15.5965 7.38387 14.5761 7.83508 13.8796C8.28629 13.1832 9.12426 12.2821 9.69722 11.8771C10.2702 11.472 11.1783 10.4119 11.7152 9.52161C12.2524 8.63102 12.9961 7.00799 13.3682 5.91501C13.7404 4.82175 14.3792 3.26675 14.788 2.45977Z" fill="#B3B3B3"/>
<path d="M0.400244 17.1487C0.617972 16.5251 1.20698 15.6002 1.70919 15.0936C2.41881 14.3779 2.86286 14.1724 3.69997 14.1724C4.40414 14.1724 4.95219 14.3638 5.28279 14.7252C5.68244 15.162 5.74575 15.5336 5.58532 16.4967C5.47359 17.1671 5.37475 18.6722 5.36559 19.8414C5.35642 21.0106 5.49221 22.4775 5.66754 23.1011C5.84287 23.7247 6.06948 24.5756 6.17146 24.9922C6.32874 25.6357 6.22532 25.8168 5.48218 26.1969C5.00146 26.4429 4.28926 26.6442 3.90022 26.6442C3.44585 26.6442 2.74827 26.2026 1.95213 25.4106C1.23248 24.6949 0.561533 23.6855 0.353832 23.0058C0.157018 22.3616 -0.00226745 21.0353 2.4426e-05 20.0585C0.0023163 19.0818 0.182516 17.7722 0.400244 17.1487Z" fill="#B3B3B3"/>
</svg>
